<svg xmlns="http://www.w3.org/2000/svg" fill="none" viewBox="0 0 17 16">
  <path fill="#595959" fill-rule="evenodd" d="M6.09843.889878V9.4327h8.96997V.889878H6.09843ZM5.53781 0c-.20641 0-.37375.159365-.37375.355951V9.96663c0 .19657.16734.35597.37375.35597H15.629c.2064 0 .3738-.1594.3738-.35597V.355951C16.0028.159365 15.8354 0 15.629 0H5.53781Z" clip-rule="evenodd"/>
  <path fill="#595959" fill-rule="evenodd" d="M.913151 4.52643H3.83524c.25216 0 .45657-.20441.45657-.45657 0-.25216-.20441-.45658-.45657-.45658H.821836C.367948 3.61328 0 3.98123 0 4.43512V14.6624c0 .4539.367949.8218.821837.8218H11.0491c.4539 0 .8219-.3679.8219-.8218v-3.1047c0-.2522-.2044-.4566-.4566-.4566s-.4566.2044-.4566.4566v3.0134H.913151V4.52643Z" clip-rule="evenodd"/>
</svg>